{"title":"13 Hours The Secret Soldiers of Benghazi CAM x264-VAiN","uid":14295261,"size":1702245105,"categoryP":"video","categoryS":"movies","magnet":"?xt=urn:btih:e88126d79fd522dd386b9a515291c6330ed59f40&amp;dn=13+Hours+The+Secret+Soldiers+of+Benghazi+CAM+x264-VAiN+++&amp;tr=udp%3A%2F%2Ftracker.leechers-paradise.org%3A6969&amp;tr=udp%3A%2F%2Fzer0day.ch%3A1337&amp;tr=udp%3A%2F%2Fopen.demonii.com%3A1337&amp;tr=udp%3A%2F%2Ftracker.coppersurfer.tk%3A6969&amp;tr=udp%3A%2F%2Fexodus.desync.com%3A6969","seeders":1,"leechers":4,"uploader":"makintos13","files":4,"time":1460443219,"description":"13 Hours The Secret Soldiers of Benghazi CAM x264-VAiN   \r\n\r\nscreens:\r\n \nhttp://imgmak.com/TKu\r\n \nhttp://imgmak.com/TK5\r\n \nhttp://imgmak.com/TK1\r\n \nhttp://imgmak.com/TKU\r\n \nhttp://imgmak.com/TK3\r\n \nhttp://imgmak.com/TKG\r\n \nhttp://imgmak.com/TKH\r\n\r\n::::::::::::\r\n\r\nP R E S E N T S . . . .\r\n\r\n13.Hours.The.Secret.Soldiers.of.Benghazi.CAM.x264-VAiN\r\n\r\niMDB........: http://www.imdb.com/title/tt4172430/\r\n\r\nPLOT........: As an American ambassador is killed during an attack at a U.S.\r\n\r\ncompound in Libya, a security team struggles to make sense out of the chaos.\r\n\r\n\r\nT E C H N i C A L . i N F O . . .\r\n\r\nBasic Information\r\nFormat                                   : Matroska\r\nFormat version                           : Version 4 / Version 2\r\nFile size                                : 1.57 GiB\r\nDuration                                 : 2h 16mn\r\nOverall bit rate mode                    : Variable\r\nOverall bit rate                         : 1 646 Kbps\r\nEncoded date                             : UTC 2016-04-11 20:22:37\r\nWriting application                      : mkvmerge v8.3.0 ('Over the\r\n\r\nHorizon') 64bit\r\nWriting library                          : libebml v1.3.1 + libmatroska v1.4.2\r\n\r\nVideo\r\nID                                       : 1\r\nFormat                                   : AVC\r\nFormat/Info                              : Advanced Video Codec\r\nFormat profile                           :   \r\nFormat settings, CABAC                   : Yes\r\nFormat settings, ReFrames                : 3 frames\r\nCodec ID                                 : V_MPEG4/ISO/AVC\r\nDuration                                 : 2h 16mn\r\nBit rate mode                            : Variable\r\nBit rate                                 : 1 516 Kbps\r\nMaximum bit rate                         : 40.0 Mbps\r\nWidth                                    : 720 pixels\r\nHeight                                   : 288 pixels\r\nDisplay aspect ratio                     : 2.35:1\r\nFrame rate mode                          : Constant\r\nFrame rate                               : 29.970 (30000/1001) fps\r\nColor space                              : YUV\r\nChroma subsampling                       : 4:2:0\r\nBit depth                                : 8 bits\r\nScan type                                : Progressive\r\nBits/(Pixel*Frame)                       : 0.244\r\nStream size                              : 1.44 GiB (92%)\r\nWriting library                          : x264 core 148 r2638 7599210\r\nLanguage                                 : English\r\nDefault                                  : Yes\r\nForced                                   : No\r\nColor range                              : Full\r\n\r\n\r\nAudio\r\nID                                       : 2\r\nFormat                                   : MPEG Audio\r\nFormat version                           : Version 1\r\nFormat profile                           : Layer 3\r\nMode                                     : Joint stereo\r\nMode extension                           : MS Stereo\r\nCodec ID                                 : A_MPEG/L3\r\nCodec ID/Hint                            : MP3\r\nDuration                                 : 2h 16mn\r\nBit rate mode                            : Constant\r\nBit rate                                 : 128 Kbps\r\nChannel(s)                               : 2 channels\r\nSampling rate                            : 48.0 KHz\r\nFrame rate                               : 41.667 fps (1152 spf)\r\nCompression mode                         : Lossy\r\nStream size                              : 125 MiB (8%)\r\nWriting library                          : LAME3.99r\r\nEncoding settings                        : -m j -V 4 -q 3 -lowpass 17 -b 128\r\nLanguage                                 : English\r\nDefault                                  : Yes\r\nForced                                   : No\r\n\r\nE N C O D E R S . N O T E S . . .      \r\n\r\nSOURCE......: UnKnOwN [ThanX]\r\n............:\r\nSAMPLE......: Yippers 2 of dem... one with light and other dark...\r\n\r\nADDED NOTE..: resized, adjusted rgb, lvls, sharp, white balance, and a few\r\n\r\nother filters. audio is not the greatest. tried to help best could and\r\n\r\nwell...dunno you all can be the judge.\r\nbeware there are many dark spots in the movie, some scenes are btter than\r\n\r\nothers. overall when it's dark... it's pretty dark. took screens to try to\r\n\r\nrepresent encode w/ the gud n' bad... in  the end we just polishing turds\r\n\r\nLOL!!!!!\r\n\r\nV/6 A/5 M/8 \r\n\r\nenjoy or don't. sample is there for all to see","torrent":{"xt":"urn:btih:e88126d79fd522dd386b9a515291c6330ed59f40","amp;dn":"13+Hours+The+Secret+Soldiers+of+Benghazi+CAM+x264-VAiN+++","amp;tr":["udp%3A%2F%2Ftracker.leechers-paradise.org%3A6969","udp%3A%2F%2Fzer0day.ch%3A1337","udp%3A%2F%2Fopen.demonii.com%3A1337","udp%3A%2F%2Ftracker.coppersurfer.tk%3A6969","udp%3A%2F%2Fexodus.desync.com%3A6969"],"infoHash":"e88126d79fd522dd386b9a515291c6330ed59f40","infoHashBuffer":{"type":"Buffer","data":[232,129,38,215,159,213,34,221,56,107,154,81,82,145,198,51,14,213,159,64]},"announce":[],"urlList":[]}}